PathFileType	4	(X/Y/Z)	C:\Users\Basilio\Documents\Thesis Gigler\squatting_fais\c3dfiles\041\SLS_pre_front2\markers_experimental.trc
DataRate	CameraRate	NumFrames	NumMarkers	Units	OrigDataRate	OrigDataStartFrame	OrigNumFrames
200.000000	200.000000	4	62	mm	200.000000	712	1425
Frame#	Time	FHD			LBHD			RBHD			C7			T10			CLAV			LSHO			LUUPA			LMUPA			LDUPA			LLEP			LMEP			LRAD			LUL			LRFIN			RSHO			RUPA1			RMUPA			RDUPA			RLEP			RMEP			RRAD			RUL			RUFIN			LASI			RASI			USACR			LSACR			RSACR			LTHI1			LTHI2			LTHI3			LTHI4			LLFC			LMFC			LTIB1			LTIB2			LTIB3			LTIB4			LLMAL			LMMAL			LHEE			LMT1			LMT2			LMT5			RTHI			RTHI2			RTHI3			RTHI4			RLFC			RMFC			RTIB1			RTIB2			RTIB3			RTIB4			RLMAL			RMMAL			RHEE			RMT1			RMT2			RMT5			*61			
		X1	Y1	Z1	X2	Y2	Z2	X3	Y3	Z3	X4	Y4	Z4	X5	Y5	Z5	X6	Y6	Z6	X7	Y7	Z7	X8	Y8	Z8	X9	Y9	Z9	X10	Y10	Z10	X11	Y11	Z11	X12	Y12	Z12	X13	Y13	Z13	X14	Y14	Z14	X15	Y15	Z15	X16	Y16	Z16	X17	Y17	Z17	X18	Y18	Z18	X19	Y19	Z19	X20	Y20	Z20	X21	Y21	Z21	X22	Y22	Z22	X23	Y23	Z23	X24	Y24	Z24	X25	Y25	Z25	X26	Y26	Z26	X27	Y27	Z27	X28	Y28	Z28	X29	Y29	Z29	X30	Y30	Z30	X31	Y31	Z31	X32	Y32	Z32	X33	Y33	Z33	X34	Y34	Z34	X35	Y35	Z35	X36	Y36	Z36	X37	Y37	Z37	X38	Y38	Z38	X39	Y39	Z39	X40	Y40	Z40	X41	Y41	Z41	X42	Y42	Z42	X43	Y43	Z43	X44	Y44	Z44	X45	Y45	Z45	X46	Y46	Z46	X47	Y47	Z47	X48	Y48	Z48	X49	Y49	Z49	X50	Y50	Z50	X51	Y51	Z51	X52	Y52	Z52	X53	Y53	Z53	X54	Y54	Z54	X55	Y55	Z55	X56	Y56	Z56	X57	Y57	Z57	X58	Y58	Z58	X59	Y59	Z59	X60	Y60	Z60	X61	Y61	Z61	X62	Y62	Z62	

713	3.56	-214.2689361572266	1600.460815429688	-1064.2158203125	-391.8616638183595	1519.235229492188	-1123.531616210938	-361.7924499511719	1530.721923828125	-973.3243408203127	-431.4248046875001	1397.993286132813	-1055.149291992188	-543.0668945312501	1111.204223632813	-1072.18310546875	-284.6953735351563	1322.6806640625	-1070.404174804688	-339.7548828125001	1411.018676757813	-1203.809448242188	-275.5415649414063	1434.812744140625	-1356.422607421875	-228.3399810791016	1443.78857421875	-1351.156127929688	-234.4315032958985	1438.358032226563	-1412.330688476563	-202.4410247802735	1437.324096679688	-1444.490600585938	-147.9477691650391	1371.16015625	-1431.43701171875	28.58771133422852	1480.118530273438	-1591.435302734375	-25.46138191223145	1494.478149414063	-1637.117065429688	79.15682220458986	1527.335327148438	-1630.5546875	-351.3605041503907	1392.424682617188	-932.896179199219	-210.2855834960938	1397.650146484375	-821.3325805664065	-196.3269195556641	1428.908935546875	-859.3675537109377	-146.6212310791016	1429.307373046875	-825.857116699219	-101.9620208740235	1438.002319335938	-829.664978027344	-70.76834106445314	1364.093872070313	-859.6812133789065	158.6722412109375	1491.483764648438	-882.457458496094	151.0431365966797	1498.432373046875	-808.6191406250002	237.2899017333985	1524.818115234375	-879.9978027343752	-394.4202270507814	905.944030761719	-1164.470336914063	-417.0800781250001	914.1382446289065	-944.7318115234377	-580.2781982421876	980.3475341796877	-1068.431030273438	-593.9311523437501	953.805847167969	-1097.070922851563	-601.2160034179689	954.1489868164065	-1042.6396484375	-395.2818298339845	706.2436523437501	-1217.895751953125	-318.8601684570313	670.9274291992189	-1202.772216796875	-285.6528015136719	702.4334716796876	-1189.717895507813	-307.6459655761719	611.5901489257814	-1187.998168945313	-198.0071868896485	486.6443176269532	-1142.019165039063	-205.1390075683594	485.1447143554689	-1024.740112304688	-231.176986694336	310.2322692871094	-1062.171142578125	-284.2861022949219	278.0166931152344	-1125.7802734375	-252.636215209961	264.1390686035157	-1096.934326171875	-288.1729736328126	199.247299194336	-1057.2578125	-374.6708984375001	130.1812133789063	-1100.88818359375	-343.0016479492188	134.2743682861328	-1013.73046875	-447.8185119628907	116.1675491333008	-1060.259887695313	-242.5650177001954	60.41858673095705	-1034.224365234375	-234.3421936035157	62.13170623779298	-1079.441650390625	-283.4224548339844	51.7498016357422	-1132.380493164063	-370.9789733886719	681.4436035156251	-867.8933105468752	-304.9862976074219	680.1393432617189	-863.5169067382815	-286.1080627441407	707.8308715820314	-866.8042602539065	-257.0579833984376	612.2589721679689	-880.9647216796877	-153.3227844238282	542.1630249023439	-880.6336059570315	-118.8093566894532	552.2755126953126	-995.5078125000002	-6.43801259994507	454.2135620117189	-882.813171386719	-7.89621162414551	341.1307678222657	-874.5795898437502	25.90326118469239	373.4286804199219	-871.6577148437502	77.9424514770508	358.6259460449219	-895.703552246094	131.5279235839844	234.6982574462891	-885.048278808594	138.2804718017578	276.7493896484376	-962.2840576171877	130.9927062988282	166.3576049804688	-939.1766357421877	262.2736816406251	339.5052795410157	-933.9024658203127	258.7674255371094	341.3967895507813	-880.9610595703127	251.4557342529297	289.1192932128907	-839.401794433594	-4217.125976562501	853.1777954101565	-3944.619140625001	
714	3.565	-213.5660247802735	1599.65576171875	-1064.249633789063	-391.2862243652345	1518.560424804688	-1123.671752929688	-360.9567871093751	1530.203369140625	-973.617370605469	-431.1177673339845	1397.510498046875	-1055.265625	-543.0142211914064	1110.815063476563	-1072.302001953125	-284.2611389160157	1322.125122070313	-1070.615844726563	-339.2791137695313	1410.5556640625	-1203.981567382813	-275.5887756347657	1434.089477539063	-1357.0205078125	-228.3743133544922	1443.010131835938	-1351.765747070313	-234.624496459961	1437.447387695313	-1412.937255859375	-202.6994628906251	1436.196411132813	-1445.089111328125	-148.2591857910157	1370.162475585938	-1432.371215820313	27.89682960510255	1478.717651367188	-1593.349365234375	-26.73833847045899	1493.302856445313	-1638.827880859375	78.10045623779298	1525.914794921875	-1632.69873046875	-350.6599121093751	1391.159301757813	-932.792907714844	-210.2795104980469	1396.270751953125	-820.2924804687502	-196.3574523925782	1428.160766601563	-857.820495605469	-146.9083557128907	1427.967163085938	-823.7637939453127	-102.3555297851563	1436.80322265625	-827.4523925781252	-70.52837371826173	1362.946411132813	-857.2698974609377	158.8466796875	1491.0302734375	-878.6154785156252	150.7418518066407	1497.366455078125	-804.6284790039065	237.0695953369141	1524.59814453125	-875.4146728515627	-394.4625549316407	905.5715332031252	-1164.563598632813	-417.0853271484376	913.6927490234377	-944.902282714844	-580.2584228515626	980.0310668945315	-1068.542114257813	-593.9550781250001	953.473815917969	-1097.158935546875	-601.2427978515626	953.7581787109377	-1042.822875976563	-395.3035888671876	705.8690795898439	-1217.98681640625	-318.8070373535157	670.6453857421876	-1202.821533203125	-285.6723022460938	702.2393188476564	-1189.788452148438	-307.5516967773438	611.3658447265626	-1188.068359375	-197.7777709960938	486.5864257812501	-1142.097290039063	-204.9920043945313	484.9568481445314	-1024.728393554688	-231.0084991455079	310.1744995117188	-1062.237915039063	-284.1246337890626	278.0813293457032	-1125.791015625	-252.5887145996094	264.1115722656251	-1096.933471679688	-288.0080566406251	199.202133178711	-1057.29345703125	-374.6381225585938	130.1799621582032	-1100.887451171875	-342.7640380859376	134.2017364501953	-1014.055419921875	-447.812469482422	116.2020263671875	-1060.271362304688	-242.5704650878907	60.45410156250001	-1034.29296875	-234.2523193359376	62.06202697753908	-1079.390502929688	-283.4706115722657	51.74652481079103	-1132.371215820313	-371.0648803710938	681.0287475585939	-867.9046630859377	-305.0858154296876	680.0651245117189	-863.2984619140627	-286.1889953613282	707.5725708007814	-866.876403808594	-256.8974304199219	611.8948974609376	-881.2111816406252	-153.3385314941407	541.7517700195314	-880.7986450195315	-118.8115921020508	551.9313354492189	-995.6193847656252	-6.436031818389894	453.9791870117189	-883.0835571289065	-7.834697246551515	340.6620178222657	-874.7212524414065	25.98929405212403	373.0721435546876	-871.9147949218752	77.9849090576172	358.3245544433594	-895.8630371093752	131.6422882080078	234.2791748046876	-885.265075683594	138.9164581298828	276.1127624511719	-962.3218994140627	131.0885620117188	165.9184875488282	-939.3408203125002	262.3138122558594	339.3275451660157	-933.9737548828127	258.7208251953126	341.1296997070313	-881.0756835937502	251.4853973388672	288.8087463378907	-839.5225830078127	-4216.980957031251	853.201843261719	-3944.801025390626	
715	3.57	-212.8827819824219	1599.10302734375	-1064.4658203125	-390.7732849121095	1517.982421875	-1123.7529296875	-360.5997924804688	1529.68408203125	-973.6737060546877	-430.6205139160157	1396.958618164063	-1055.285766601563	-542.8792114257814	1110.440307617188	-1072.384521484375	-283.8657226562501	1321.618408203125	-1070.757934570313	-337.4717407226563	1410.009033203125	-1204.3212890625	-275.6001586914063	1433.392944335938	-1357.524536132813	-228.065658569336	1442.135498046875	-1352.51171875	-234.6615447998047	1436.48876953125	-1413.577392578125	-203.0061187744141	1435.456176757813	-1446.097412109375	-148.8488922119141	1369.148193359375	-1433.269165039063	26.76378440856934	1477.226196289063	-1595.442016601563	-27.89978027343751	1491.997192382813	-1640.4404296875	77.04658508300783	1524.567504882813	-1634.895751953125	-350.3434143066407	1390.355834960938	-932.473571777344	-210.3530883789063	1395.100463867188	-818.9162597656252	-196.6334381103516	1426.817138671875	-855.8815917968752	-146.9595794677735	1426.72705078125	-821.9981079101565	-102.3878326416016	1435.666137695313	-825.4453125000002	-70.27617645263673	1362.151489257813	-855.074645996094	158.8870849609375	1490.378540039063	-874.4655761718752	150.5691375732422	1496.135498046875	-800.709899902344	236.9701080322266	1524.186645507813	-870.8081665039065	-394.3935546875001	905.0256958007815	-1164.8662109375	-417.1277770996095	913.2327270507815	-945.1409301757815	-580.2778320312501	979.8331298828127	-1068.814331054688	-594.1644897460939	953.2249145507815	-1097.32080078125	-601.0674438476564	953.4279785156252	-1042.8642578125	-395.2652282714845	705.4923706054689	-1218.1572265625	-318.8284912109376	670.4129028320314	-1202.9150390625	-285.6315917968751	702.0587158203126	-1189.93310546875	-307.4664306640626	611.2002563476564	-1188.143798828125	-197.6149139404297	486.4534301757814	-1142.128540039063	-204.6810455322266	484.9837951660157	-1024.784301757813	-230.8248291015626	310.1913757324219	-1062.258911132813	-284.0101623535157	278.0455322265626	-1125.884643554688	-252.422592163086	264.1291809082032	-1096.9775390625	-287.9670104980469	199.1957397460938	-1057.328857421875	-374.6029052734376	130.1948852539063	-1100.930297851563	-342.7584228515626	134.2229156494141	-1014.058715820313	-447.8155212402345	116.2113800048828	-1060.26806640625	-242.6580657958985	60.45792770385744	-1034.263549804688	-234.2758178710938	62.02192687988283	-1079.423706054688	-283.4101257324219	51.73154830932619	-1132.3798828125	-370.8737487792969	680.5283813476564	-868.1228637695315	-305.0429382324219	679.6102905273439	-863.440856933594	-286.2276611328126	707.3492431640626	-867.020690917969	-256.9150390625001	611.5286865234376	-881.2780761718752	-153.3633728027344	541.3368530273439	-880.9449462890627	-118.8996810913086	551.6799926757814	-995.6457519531252	-6.430061817169191	453.7077941894532	-883.2756958007815	-7.766661643981935	340.4181823730469	-874.9838867187502	26.07872772216798	372.7192993164063	-872.1608886718752	78.01493072509767	357.9727478027344	-896.0236816406252	131.7896728515625	233.9082946777344	-885.5218505859377	138.9001617431641	275.7018432617188	-962.4527587890627	131.0208740234375	165.6236724853516	-939.4274902343752	262.3283081054688	339.0655517578126	-934.1137695312502	258.7351684570313	340.8697814941407	-881.2226562500002	251.5549011230469	288.5085449218751	-839.709167480469	-4217.007324218751	853.1616210937502	-3944.774169921876	
716	3.575	-212.7982482910157	1598.680297851563	-1064.728637695313	-390.2312927246095	1517.397338867188	-1123.810913085938	-360.0586242675782	1529.075073242188	-973.8996582031252	-430.0110473632814	1396.5068359375	-1055.407592773438	-542.7088012695314	1110.0478515625	-1072.450805664063	-283.2168884277344	1321.044555664063	-1070.983276367188	-337.2210083007813	1409.62841796875	-1204.671630859375	-275.5513000488282	1432.654907226563	-1358.07080078125	-228.1965942382813	1441.350463867188	-1353.24609375	-234.9192352294922	1435.7177734375	-1414.279296875	-203.5077667236329	1434.562866210938	-1446.810668945313	-149.1887359619141	1368.266479492188	-1434.304077148438	25.82666587829591	1476.26318359375	-1597.184448242188	-28.88881874084473	1490.69140625	-1642.079467773438	76.02500152587892	1523.189697265625	-1636.993530273438	-349.6849060058594	1388.971801757813	-932.2324829101565	-210.5454711914063	1393.729736328125	-817.5806884765627	-196.5321197509766	1425.728881835938	-854.4009399414065	-147.0552520751953	1425.378784179688	-820.1842041015627	-102.2020034790039	1434.239624023438	-823.4287109375002	-70.36675262451173	1360.797241210938	-852.6856079101565	158.8619537353516	1489.7998046875	-870.699890136719	150.1935272216797	1495.020751953125	-796.8411254882815	236.9735717773438	1523.826416015625	-866.3938598632815	-394.4512634277345	904.5339355468752	-1165.118408203125	-417.0895385742189	912.597106933594	-945.3165283203127	-580.2040405273439	979.4609375000002	-1068.971923828125	-594.1608276367189	952.872497558594	-1097.429931640625	-600.9986572265626	953.0924072265627	-1042.952026367188	-395.178436279297	705.1286621093751	-1218.2685546875	-318.8074340820313	670.1429443359376	-1202.984008789063	-285.6551208496094	701.8116455078126	-1190.037109375	-307.3200073242188	610.9371337890626	-1188.312133789063	-197.3099365234376	486.3468017578126	-1142.191162109375	-204.5752868652344	484.8126831054689	-1024.776977539063	-230.7203521728516	310.1089782714844	-1062.294799804688	-283.9207458496094	277.9172973632813	-1125.879516601563	-252.4376525878907	264.1522216796876	-1097.021728515625	-287.8905944824219	199.2122497558594	-1057.33544921875	-374.6577453613282	130.2138671875	-1100.930053710938	-342.9413452148438	134.3226623535157	-1013.776611328125	-447.8408203125001	116.2173919677735	-1060.262451171875	-242.5848388671876	60.50184631347658	-1034.305297851563	-234.2935791015626	62.1510696411133	-1079.38525390625	-283.3781738281251	51.79310607910158	-1132.399169921875	-370.9145507812501	680.1021118164064	-868.2261352539065	-304.9540100097657	679.2671508789064	-863.7359008789065	-286.3159484863282	707.0529174804689	-867.0525512695315	-256.8476562500001	611.0459594726564	-881.527770996094	-153.3349151611328	541.0158081054689	-881.0371093750002	-118.9393539428711	551.3428955078126	-995.816101074219	-6.295053482055666	453.413787841797	-883.5288696289065	-7.758721351623537	340.0344848632813	-875.166687011719	26.10815048217774	372.3778991699219	-872.3721923828127	78.04264068603517	357.6007080078126	-896.108093261719	131.707992553711	233.6436920166016	-885.6912841796877	138.3299865722657	275.7368164062501	-962.7976074218752	130.9239807128907	165.4201812744141	-939.5298461914065	262.3493652343751	338.8576354980469	-934.2707519531252	258.5895385742188	340.6037902832032	-881.3762207031252	251.6800994873047	288.2160339355469	-839.904724121094	-4217.006835937501	853.1406250000002	-3944.598876953126	
